<svg width="73" height="38" viewBox="0 0 73 38" fill="none" xmlns="http://www.w3.org/2000/svg">
<path d="M13.6851 11.33C13.6851 12.44 13.4376 13.445 12.9426 14.345C12.4626 15.23 11.7276 15.935 10.7376 16.46C9.76256 16.97 8.52506 17.225 7.02506 17.225C4.89506 17.225 3.27506 16.685 2.16506 15.605C1.05506 14.51 0.500061 13.07 0.500061 11.285V0.934961H3.89756V10.7675C3.89756 12.0875 4.16756 13.0175 4.70756 13.5575C5.24756 14.0975 6.05006 14.3675 7.11506 14.3675C7.86506 14.3675 8.47256 14.24 8.93756 13.985C9.40256 13.73 9.74006 13.3325 9.95006 12.7925C10.1751 12.2525 10.2876 11.57 10.2876 10.745V0.934961H13.6851V11.33Z" fill="white"/>
<path d="M31.8619 17H27.5419L20.5444 4.84996H20.4544C20.4694 5.22496 20.4844 5.60746 20.4994 5.99746C20.5144 6.37246 20.5294 6.75496 20.5444 7.14496C20.5744 7.51996 20.5969 7.90246 20.6119 8.29246C20.6269 8.66746 20.6419 9.04996 20.6569 9.43996V17H17.6194V0.934961H21.9169L28.8919 12.9725H28.9594C28.9444 12.5975 28.9294 12.23 28.9144 11.87C28.8994 11.495 28.8844 11.1275 28.8694 10.7675C28.8694 10.3925 28.8619 10.025 28.8469 9.66496C28.8319 9.28996 28.8169 8.91496 28.8019 8.53996V0.934961H31.8619V17Z" fill="white"/>
<path d="M42.7401 3.54496C42.0951 3.54496 41.5176 3.67246 41.0076 3.92746C40.5126 4.18246 40.0926 4.54996 39.7476 5.02996C39.4026 5.49496 39.1401 6.06496 38.9601 6.73996C38.7951 7.41496 38.7126 8.17246 38.7126 9.01246C38.7126 10.1525 38.8476 11.1275 39.1176 11.9375C39.4026 12.7325 39.8451 13.34 40.4451 13.76C41.0451 14.18 41.8101 14.39 42.7401 14.39C43.4001 14.39 44.0526 14.315 44.6976 14.165C45.3576 14.015 46.0701 13.805 46.8351 13.535V16.3925C46.1301 16.6775 45.4326 16.8875 44.7426 17.0225C44.0526 17.1575 43.2801 17.225 42.4251 17.225C40.7751 17.225 39.4101 16.8875 38.3301 16.2125C37.2651 15.5225 36.4776 14.5625 35.9676 13.3325C35.4576 12.0875 35.2026 10.64 35.2026 8.98996C35.2026 7.77496 35.3676 6.66496 35.6976 5.65996C36.0276 4.63996 36.5076 3.76246 37.1376 3.02746C37.7826 2.29246 38.5701 1.72246 39.5001 1.31746C40.4451 0.912461 41.5251 0.709961 42.7401 0.709961C43.5351 0.709961 44.3301 0.814961 45.1251 1.02496C45.9351 1.21996 46.7076 1.48996 47.4426 1.83496L46.3401 4.60246C45.7401 4.31746 45.1326 4.06996 44.5176 3.85996C43.9176 3.64996 43.3251 3.54496 42.7401 3.54496Z" fill="white"/>
<path d="M50.2488 17V0.934961H53.6463V14.1875H60.1713V17H50.2488Z" fill="white"/>
<path d="M72.2185 17H62.971V0.934961H72.2185V3.72496H66.3685V7.25746H71.8135V10.0475H66.3685V14.1875H72.2185V17Z" fill="white"/>
<path d="M13.9326 29.06C13.9326 30.86 13.5876 32.3675 12.8976 33.5825C12.2076 34.7975 11.2026 35.7125 9.88256 36.3275C8.57756 36.9425 7.00256 37.25 5.15756 37.25H0.612561V21.185H5.65256C7.33256 21.185 8.78756 21.485 10.0176 22.085C11.2626 22.685 12.2226 23.57 12.8976 24.74C13.5876 25.895 13.9326 27.335 13.9326 29.06ZM10.4001 29.15C10.4001 27.965 10.2276 26.99 9.88256 26.225C9.53756 25.46 9.02006 24.8975 8.33006 24.5375C7.65506 24.1625 6.82256 23.975 5.83256 23.975H4.01006V34.4375H5.47256C7.13756 34.4375 8.37506 33.995 9.18506 33.11C9.99506 32.225 10.4001 30.905 10.4001 29.15Z" fill="white"/>
<path d="M21.9478 21.185C23.4028 21.185 24.6028 21.365 25.5478 21.725C26.4928 22.07 27.1978 22.6025 27.6628 23.3225C28.1278 24.0275 28.3603 24.92 28.3603 26C28.3603 26.735 28.2178 27.38 27.9328 27.935C27.6628 28.475 27.2953 28.94 26.8303 29.33C26.3803 29.705 25.8928 30.0125 25.3678 30.2525L30.0928 37.25H26.3128L22.4878 31.085H20.6653V37.25H17.2678V21.185H21.9478ZM21.7003 23.975H20.6653V28.3175H21.7678C22.5178 28.3175 23.1253 28.235 23.5903 28.07C24.0553 27.905 24.3928 27.6575 24.6028 27.3275C24.8128 26.9825 24.9178 26.57 24.9178 26.09C24.9178 25.58 24.7978 25.175 24.5578 24.875C24.3328 24.56 23.9803 24.335 23.5003 24.2C23.0353 24.05 22.4353 23.975 21.7003 23.975Z" fill="white"/>
<path d="M41.3689 37.25H32.1214V21.185H41.3689V23.975H35.5189V27.5075H40.9638V30.2975H35.5189V34.4375H41.3689V37.25Z" fill="white"/>
<path d="M64.4442 21.185L60.3492 37.25H56.4792L54.2967 28.8125C54.2517 28.6475 54.1917 28.4 54.1167 28.07C54.0567 27.74 53.9817 27.38 53.8917 26.99C53.8167 26.6 53.7492 26.2325 53.6892 25.8875C53.6292 25.5275 53.5842 25.25 53.5542 25.055C53.5392 25.25 53.4942 25.5275 53.4192 25.8875C53.3592 26.2325 53.2917 26.6 53.2167 26.99C53.1417 27.365 53.0667 27.725 52.9917 28.07C52.9167 28.4 52.8567 28.655 52.8117 28.835L50.6517 37.25H46.7817L42.6867 21.185H46.0392L48.0867 29.96C48.1467 30.215 48.2142 30.53 48.2892 30.905C48.3642 31.265 48.4392 31.6475 48.5142 32.0525C48.5892 32.4425 48.6567 32.825 48.7167 33.2C48.7917 33.575 48.8442 33.8975 48.8742 34.1675C48.9042 33.8825 48.9492 33.56 49.0092 33.2C49.0692 32.825 49.1367 32.45 49.2117 32.075C49.2867 31.685 49.3542 31.325 49.4142 30.995C49.4892 30.65 49.5567 30.38 49.6167 30.185L51.9567 21.185H55.1742L57.5142 30.185C57.5592 30.38 57.6192 30.65 57.6942 30.995C57.7692 31.325 57.8442 31.685 57.9192 32.075C57.9942 32.465 58.0617 32.8475 58.1217 33.2225C58.1817 33.5825 58.2267 33.8975 58.2567 34.1675C58.3017 33.7925 58.3692 33.35 58.4592 32.84C58.5492 32.315 58.6467 31.79 58.7517 31.265C58.8717 30.74 58.9692 30.305 59.0442 29.96L61.0917 21.185H64.4442Z" fill="white"/>
</svg>
