<svg width="96" height="49" viewBox="0 0 96 49" fill="none" xmlns="http://www.w3.org/2000/svg">
<path d="M17.58 14.44C17.58 15.92 17.25 17.26 16.59 18.46C15.95 19.64 14.97 20.58 13.65 21.28C12.35 21.96 10.7 22.3 8.7 22.3C5.86 22.3 3.7 21.58 2.22 20.14C0.74 18.68 0 16.76 0 14.38V0.580029H4.53V13.69C4.53 15.45 4.89 16.69 5.61 17.41C6.33 18.13 7.4 18.49 8.82 18.49C9.82 18.49 10.63 18.32 11.25 17.98C11.87 17.64 12.32 17.11 12.6 16.39C12.9 15.67 13.05 14.76 13.05 13.66V0.580029H17.58V14.44Z" fill="white"/>
<path d="M41.8158 22H36.0558L26.7258 5.80003H26.6058C26.6258 6.30003 26.6458 6.81003 26.6658 7.33003C26.6858 7.83003 26.7058 8.34003 26.7258 8.86003C26.7658 9.36003 26.7958 9.87003 26.8158 10.39C26.8358 10.89 26.8558 11.4 26.8758 11.92V22H22.8258V0.580029H28.5558L37.8558 16.63H37.9458C37.9258 16.13 37.9058 15.64 37.8858 15.16C37.8658 14.66 37.8458 14.17 37.8258 13.69C37.8258 13.19 37.8158 12.7 37.7958 12.22C37.7758 11.72 37.7558 11.22 37.7358 10.72V0.580029H41.8158V22Z" fill="white"/>
<path d="M56.3201 4.06003C55.4601 4.06003 54.6901 4.23003 54.0101 4.57003C53.3501 4.91003 52.7901 5.40003 52.3301 6.04003C51.8701 6.66003 51.5201 7.42003 51.2801 8.32003C51.0601 9.22003 50.9501 10.23 50.9501 11.35C50.9501 12.87 51.1301 14.17 51.4901 15.25C51.8701 16.31 52.4601 17.12 53.2601 17.68C54.0601 18.24 55.0801 18.52 56.3201 18.52C57.2001 18.52 58.0701 18.42 58.9301 18.22C59.8101 18.02 60.7601 17.74 61.7801 17.38V21.19C60.8401 21.57 59.9101 21.85 58.9901 22.03C58.0701 22.21 57.0401 22.3 55.9001 22.3C53.7001 22.3 51.8801 21.85 50.4401 20.95C49.0201 20.03 47.9701 18.75 47.2901 17.11C46.6101 15.45 46.2701 13.52 46.2701 11.32C46.2701 9.70003 46.4901 8.22003 46.9301 6.88003C47.3701 5.52003 48.0101 4.35003 48.8501 3.37003C49.7101 2.39003 50.7601 1.63003 52.0001 1.09003C53.2601 0.550029 54.7001 0.280029 56.3201 0.280029C57.3801 0.280029 58.4401 0.420029 59.5001 0.700029C60.5801 0.960029 61.6101 1.32003 62.5901 1.78003L61.1201 5.47003C60.3201 5.09003 59.5101 4.76003 58.6901 4.48003C57.8901 4.20003 57.1001 4.06003 56.3201 4.06003Z" fill="white"/>
<path d="M66.3316 22V0.580029H70.8616V18.25H79.5616V22H66.3316Z" fill="white"/>
<path d="M95.6245 22H83.2945V0.580029H95.6245V4.30003H87.8245V9.01003H95.0845V12.73H87.8245V18.25H95.6245V22Z" fill="white"/>
<path d="M17.91 38.08C17.91 40.48 17.45 42.49 16.53 44.11C15.61 45.73 14.27 46.95 12.51 47.77C10.77 48.59 8.67 49 6.21 49H0.15V27.58H6.87C9.11 27.58 11.05 27.98 12.69 28.78C14.35 29.58 15.63 30.76 16.53 32.32C17.45 33.86 17.91 35.78 17.91 38.08ZM13.2 38.2C13.2 36.62 12.97 35.32 12.51 34.3C12.05 33.28 11.36 32.53 10.44 32.05C9.54 31.55 8.43 31.3 7.11 31.3H4.68V45.25H6.63C8.85 45.25 10.5 44.66 11.58 43.48C12.66 42.3 13.2 40.54 13.2 38.2Z" fill="white"/>
<path d="M28.597 27.58C30.537 27.58 32.137 27.82 33.397 28.3C34.657 28.76 35.597 29.47 36.217 30.43C36.837 31.37 37.147 32.56 37.147 34C37.147 34.98 36.957 35.84 36.577 36.58C36.217 37.3 35.727 37.92 35.107 38.44C34.507 38.94 33.857 39.35 33.157 39.67L39.457 49H34.417L29.317 40.78H26.887V49H22.357V27.58H28.597ZM28.267 31.3H26.887V37.09H28.357C29.357 37.09 30.167 36.98 30.787 36.76C31.407 36.54 31.857 36.21 32.137 35.77C32.417 35.31 32.557 34.76 32.557 34.12C32.557 33.44 32.397 32.9 32.077 32.5C31.777 32.08 31.307 31.78 30.667 31.6C30.047 31.4 29.247 31.3 28.267 31.3Z" fill="white"/>
<path d="M54.4917 49H42.1617V27.58H54.4917V31.3H46.6917V36.01H53.9517V39.73H46.6917V45.25H54.4917V49Z" fill="white"/>
<path d="M85.2588 27.58L79.7988 49H74.6388L71.7288 37.75C71.6688 37.53 71.5888 37.2 71.4888 36.76C71.4088 36.32 71.3088 35.84 71.1888 35.32C71.0888 34.8 70.9988 34.31 70.9188 33.85C70.8388 33.37 70.7788 33 70.7388 32.74C70.7188 33 70.6588 33.37 70.5588 33.85C70.4788 34.31 70.3888 34.8 70.2888 35.32C70.1888 35.82 70.0888 36.3 69.9888 36.76C69.8888 37.2 69.8088 37.54 69.7488 37.78L66.8688 49H61.7088L56.2488 27.58H60.7188L63.4488 39.28C63.5288 39.62 63.6188 40.04 63.7188 40.54C63.8188 41.02 63.9188 41.53 64.0188 42.07C64.1188 42.59 64.2088 43.1 64.2888 43.6C64.3888 44.1 64.4588 44.53 64.4988 44.89C64.5388 44.51 64.5988 44.08 64.6788 43.6C64.7588 43.1 64.8488 42.6 64.9488 42.1C65.0488 41.58 65.1388 41.1 65.2188 40.66C65.3188 40.2 65.4088 39.84 65.4888 39.58L68.6088 27.58H72.8988L76.0188 39.58C76.0788 39.84 76.1588 40.2 76.2588 40.66C76.3588 41.1 76.4588 41.58 76.5588 42.1C76.6588 42.62 76.7488 43.13 76.8288 43.63C76.9088 44.11 76.9688 44.53 77.0088 44.89C77.0688 44.39 77.1588 43.8 77.2788 43.12C77.3988 42.42 77.5288 41.72 77.6688 41.02C77.8288 40.32 77.9588 39.74 78.0588 39.28L80.7888 27.58H85.2588Z" fill="white"/>
</svg>
