<svg width="59" height="59" viewBox="0 0 59 59" fill="none" xmlns="http://www.w3.org/2000/svg">
<g clip-path="url(#clip0_0_11)">
<path d="M29.5 57.9463C45.2105 57.9463 57.9464 45.2104 57.9464 29.4999C57.9464 13.7894 45.2105 1.05347 29.5 1.05347C13.7895 1.05347 1.05359 13.7894 1.05359 29.4999C1.05359 45.2104 13.7895 57.9463 29.5 57.9463Z" stroke="white" stroke-width="2"/>
<path d="M41.0888 42.0116V39.2198C41.0888 37.7389 40.5005 36.3187 39.4534 35.2716C38.4062 34.2244 36.986 33.6362 35.5052 33.6362H24.338C22.8571 33.6362 21.4369 34.2244 20.3897 35.2716C19.3426 36.3187 18.7544 37.7389 18.7544 39.2198V42.0116" stroke="white" stroke-width="2" stroke-linecap="round" stroke-linejoin="round"/>
<path d="M29.9217 28.0532C33.0054 28.0532 35.5054 25.5534 35.5054 22.4696C35.5054 19.3859 33.0054 16.886 29.9217 16.886C26.8379 16.886 24.3381 19.3859 24.3381 22.4696C24.3381 25.5534 26.8379 28.0532 29.9217 28.0532Z" stroke="white" stroke-width="2" stroke-linecap="round" stroke-linejoin="round"/>
</g>
<defs>
<clipPath id="clip0_0_11">
<rect width="59" height="59" fill="white"/>
</clipPath>
</defs>
</svg>
