<svg width="45" height="45" viewBox="0 0 45 45" fill="none" xmlns="http://www.w3.org/2000/svg">
<g clip-path="url(#clip0_169_1540)">
<path d="M22.375 43.4597C34.1579 43.4597 43.7098 33.9078 43.7098 22.1249C43.7098 10.342 34.1579 0.790039 22.375 0.790039C10.5921 0.790039 1.04019 10.342 1.04019 22.1249C1.04019 33.9078 10.5921 43.4597 22.375 43.4597Z" stroke="white" stroke-width="1.5"/>
<path d="M31.0667 31.5088V29.415C31.0667 28.3043 30.6254 27.2392 29.8401 26.4538C29.0547 25.6685 27.9896 25.2273 26.879 25.2273H18.5035C17.3929 25.2273 16.3277 25.6685 15.5423 26.4538C14.757 27.2392 14.3158 28.3043 14.3158 29.415V31.5088" stroke="white" stroke-width="1.5" stroke-linecap="round" stroke-linejoin="round"/>
<path d="M22.6913 21.04C25.0041 21.04 26.8791 19.1651 26.8791 16.8523C26.8791 14.5395 25.0041 12.6646 22.6913 12.6646C20.3785 12.6646 18.5036 14.5395 18.5036 16.8523C18.5036 19.1651 20.3785 21.04 22.6913 21.04Z" stroke="white" stroke-width="1.5" stroke-linecap="round" stroke-linejoin="round"/>
</g>
<defs>
<clipPath id="clip0_169_1540">
<rect width="44.25" height="44.25" fill="white" transform="translate(0.250061)"/>
</clipPath>
</defs>
</svg>
