<svg width="27" height="15" viewBox="0 0 27 15" fill="none" xmlns="http://www.w3.org/2000/svg">
<path d="M25.9847 13.4539C25.9535 13.3867 25.9245 13.3309 25.8973 13.2862C25.4505 12.4813 24.5966 11.4934 23.3359 10.3222L23.3093 10.2953L23.2961 10.2822L23.2824 10.2687H23.2689C22.6967 9.72338 22.3344 9.35657 22.1828 9.16893C21.9053 8.81125 21.843 8.4492 21.9947 8.08238C22.1019 7.80529 22.5046 7.22002 23.2017 6.32575C23.5684 5.85188 23.8588 5.47207 24.0733 5.18591C25.6202 3.12947 26.2909 1.81537 26.0851 1.24311L26.0052 1.10938C25.9515 1.02887 25.8129 0.955216 25.5896 0.888043C25.3659 0.82102 25.0798 0.809934 24.7311 0.854607L20.8689 0.881279C20.8063 0.859107 20.7169 0.861179 20.6006 0.888043C20.4844 0.91492 20.4261 0.928393 20.4261 0.928393L20.3589 0.96198L20.3056 1.00233C20.2609 1.02902 20.2116 1.07594 20.1579 1.14302C20.1045 1.20985 20.06 1.2883 20.0241 1.37768C19.6036 2.4595 19.1256 3.46532 18.5891 4.39508C18.2582 4.9495 17.9544 5.42998 17.6771 5.83675C17.3998 6.24352 17.1673 6.54311 16.9797 6.73525C16.7918 6.92738 16.6223 7.08148 16.47 7.19779C16.3181 7.31425 16.202 7.36334 16.1216 7.34534C16.041 7.32747 15.9651 7.30961 15.8933 7.29175C15.7682 7.21116 15.6676 7.10166 15.5918 6.96311C15.5156 6.82457 15.4643 6.65016 15.4376 6.44002C15.4107 6.22975 15.395 6.04893 15.3905 5.89688C15.3863 5.74511 15.3882 5.53027 15.3973 5.25313C15.4066 4.97584 15.4107 4.78823 15.4107 4.68989C15.4107 4.35008 15.4174 3.9813 15.4306 3.58346C15.4442 3.18559 15.4551 2.87037 15.4643 2.63813C15.4734 2.40566 15.4776 2.15973 15.4776 1.90045C15.4776 1.64115 15.4618 1.43781 15.4306 1.29022C15.3999 1.14282 15.3526 0.999753 15.2903 0.861043C15.2276 0.722471 15.1358 0.615275 15.0154 0.539184C14.8947 0.463189 14.7446 0.402875 14.5661 0.358066C14.0922 0.250816 13.4886 0.192807 12.7554 0.183793C11.0926 0.165943 10.0241 0.273316 9.55023 0.505789C9.36249 0.604012 9.19258 0.738207 9.04068 0.907966C8.87971 1.10473 8.85726 1.21211 8.97347 1.22977C9.50998 1.31014 9.88979 1.5024 10.1133 1.80636L10.1939 1.96743C10.2566 2.08363 10.3191 2.28937 10.3817 2.58435C10.4443 2.87933 10.4846 3.20565 10.5024 3.5631C10.547 4.21588 10.547 4.77467 10.5024 5.2395C10.4576 5.70447 10.4153 6.06652 10.375 6.32588C10.3346 6.58511 10.2743 6.79525 10.1939 6.95616C10.1133 7.11707 10.0597 7.21538 10.0329 7.25111C10.006 7.28684 9.98369 7.30934 9.96594 7.31807C9.84973 7.36266 9.72887 7.38529 9.60378 7.38529C9.47851 7.38529 9.3266 7.3227 9.14783 7.19738C8.96909 7.0722 8.78361 6.90025 8.59134 6.68111C8.39908 6.46198 8.18227 6.15584 7.94077 5.76243C7.69948 5.3691 7.44912 4.90421 7.18983 4.3678L6.97531 3.97877C6.84121 3.7285 6.65802 3.36409 6.42556 2.88587C6.19295 2.40746 5.98735 1.94468 5.80862 1.49764C5.73717 1.3099 5.62983 1.16696 5.48682 1.0686L5.4197 1.02825C5.37507 0.992566 5.30343 0.954656 5.20517 0.914252C5.10677 0.873902 5.00408 0.844979 4.8967 0.82717L1.22211 0.853857C0.84662 0.853857 0.591838 0.93892 0.457684 1.10882L0.403997 1.18919C0.377175 1.23394 0.363647 1.30544 0.363647 1.40385C0.363647 1.50221 0.39047 1.62293 0.444156 1.76586C0.980584 3.02661 1.56393 4.24248 2.19421 5.41367C2.82448 6.58484 3.37217 7.52834 3.83695 8.24316C4.30184 8.95852 4.77571 9.63366 5.25853 10.2682C5.74135 10.9031 6.06095 11.3098 6.21733 11.4886C6.37389 11.6677 6.49685 11.8016 6.58623 11.8909L6.92158 12.2127C7.13615 12.4273 7.45123 12.6844 7.86699 12.9838C8.28283 13.2834 8.74321 13.5784 9.24835 13.8692C9.75357 14.1596 10.3413 14.3964 11.012 14.5797C11.6825 14.7631 12.3351 14.8367 12.9699 14.8013H14.5123C14.825 14.7742 15.062 14.676 15.2231 14.5062L15.2764 14.439C15.3124 14.3855 15.3459 14.3027 15.3769 14.1911C15.4082 14.0794 15.4238 13.9562 15.4238 13.8223C15.4146 13.4379 15.444 13.0914 15.5109 12.7831C15.5777 12.4748 15.6538 12.2423 15.7391 12.0857C15.8243 11.9293 15.9203 11.7973 16.0273 11.6903C16.1345 11.5831 16.2109 11.5182 16.2557 11.4958C16.3002 11.4733 16.3358 11.4581 16.3626 11.4488C16.5771 11.3773 16.8297 11.4466 17.1206 11.6569C17.4111 11.867 17.6839 12.1264 17.9387 12.4347C18.1936 12.7433 18.4997 13.0897 18.8571 13.4739C19.2151 13.8585 19.5279 14.1443 19.7959 14.3323L20.0641 14.4932C20.2433 14.6006 20.4756 14.699 20.7619 14.7883C21.0476 14.8778 21.2978 14.9002 21.5126 14.8554L24.9456 14.8018C25.2853 14.8018 25.5495 14.7457 25.7368 14.6341C25.9247 14.5223 26.0363 14.3992 26.0721 14.2654C26.1081 14.1313 26.1101 13.9792 26.079 13.8091C26.0472 13.6395 26.0158 13.5208 25.9847 13.4539Z" fill="#959595"/>
</svg>
