<svg width="96" height="49" viewBox="0 0 96 49" fill="none" xmlns="http://www.w3.org/2000/svg">
<path d="M17.58 14.16C17.58 15.64 17.25 16.98 16.59 18.18C15.95 19.36 14.97 20.3 13.65 21C12.35 21.68 10.7 22.02 8.7 22.02C5.86 22.02 3.7 21.3 2.22 19.86C0.74 18.4 0 16.48 0 14.1V0.3H4.53V13.41C4.53 15.17 4.89 16.41 5.61 17.13C6.33 17.85 7.4 18.21 8.82 18.21C9.82 18.21 10.63 18.04 11.25 17.7C11.87 17.36 12.32 16.83 12.6 16.11C12.9 15.39 13.05 14.48 13.05 13.38V0.3H17.58V14.16Z" fill="#2F2F2F"/>
<path d="M41.8158 21.72H36.0558L26.7258 5.52H26.6058C26.6258 6.02 26.6458 6.53 26.6658 7.05C26.6858 7.55 26.7058 8.06 26.7258 8.58C26.7658 9.08 26.7958 9.59 26.8158 10.11C26.8358 10.61 26.8558 11.12 26.8758 11.64V21.72H22.8258V0.3H28.5558L37.8558 16.35H37.9458C37.9258 15.85 37.9058 15.36 37.8858 14.88C37.8658 14.38 37.8458 13.89 37.8258 13.41C37.8258 12.91 37.8158 12.42 37.7958 11.94C37.7758 11.44 37.7558 10.94 37.7358 10.44V0.3H41.8158V21.72Z" fill="#2F2F2F"/>
<path d="M56.3201 3.78C55.4601 3.78 54.6901 3.95 54.0101 4.29C53.3501 4.63 52.7901 5.12 52.3301 5.76C51.8701 6.38 51.5201 7.14 51.2801 8.04C51.0601 8.94 50.9501 9.95 50.9501 11.07C50.9501 12.59 51.1301 13.89 51.4901 14.97C51.8701 16.03 52.4601 16.84 53.2601 17.4C54.0601 17.96 55.0801 18.24 56.3201 18.24C57.2001 18.24 58.0701 18.14 58.9301 17.94C59.8101 17.74 60.7601 17.46 61.7801 17.1V20.91C60.8401 21.29 59.9101 21.57 58.9901 21.75C58.0701 21.93 57.0401 22.02 55.9001 22.02C53.7001 22.02 51.8801 21.57 50.4401 20.67C49.0201 19.75 47.9701 18.47 47.2901 16.83C46.6101 15.17 46.2701 13.24 46.2701 11.04C46.2701 9.42 46.4901 7.94 46.9301 6.6C47.3701 5.24 48.0101 4.07 48.8501 3.09C49.7101 2.11 50.7601 1.35 52.0001 0.81C53.2601 0.27 54.7001 0 56.3201 0C57.3801 0 58.4401 0.14 59.5001 0.42C60.5801 0.68 61.6101 1.04 62.5901 1.5L61.1201 5.19C60.3201 4.81 59.5101 4.48 58.6901 4.2C57.8901 3.92 57.1001 3.78 56.3201 3.78Z" fill="#2F2F2F"/>
<path d="M66.3316 21.72V0.3H70.8616V17.97H79.5616V21.72H66.3316Z" fill="#2F2F2F"/>
<path d="M95.6245 21.72H83.2945V0.3H95.6245V4.02H87.8245V8.73H95.0845V12.45H87.8245V17.97H95.6245V21.72Z" fill="#2F2F2F"/>
<path d="M17.91 37.8C17.91 40.2 17.45 42.21 16.53 43.83C15.61 45.45 14.27 46.67 12.51 47.49C10.77 48.31 8.67 48.72 6.21 48.72H0.15V27.3H6.87C9.11 27.3 11.05 27.7 12.69 28.5C14.35 29.3 15.63 30.48 16.53 32.04C17.45 33.58 17.91 35.5 17.91 37.8ZM13.2 37.92C13.2 36.34 12.97 35.04 12.51 34.02C12.05 33 11.36 32.25 10.44 31.77C9.54 31.27 8.43 31.02 7.11 31.02H4.68V44.97H6.63C8.85 44.97 10.5 44.38 11.58 43.2C12.66 42.02 13.2 40.26 13.2 37.92Z" fill="#2F2F2F"/>
<path d="M28.597 27.3C30.537 27.3 32.137 27.54 33.397 28.02C34.657 28.48 35.597 29.19 36.217 30.15C36.837 31.09 37.147 32.28 37.147 33.72C37.147 34.7 36.957 35.56 36.577 36.3C36.217 37.02 35.727 37.64 35.107 38.16C34.507 38.66 33.857 39.07 33.157 39.39L39.457 48.72H34.417L29.317 40.5H26.887V48.72H22.357V27.3H28.597ZM28.267 31.02H26.887V36.81H28.357C29.357 36.81 30.167 36.7 30.787 36.48C31.407 36.26 31.857 35.93 32.137 35.49C32.417 35.03 32.557 34.48 32.557 33.84C32.557 33.16 32.397 32.62 32.077 32.22C31.777 31.8 31.307 31.5 30.667 31.32C30.047 31.12 29.247 31.02 28.267 31.02Z" fill="#2F2F2F"/>
<path d="M54.4917 48.72H42.1617V27.3H54.4917V31.02H46.6917V35.73H53.9517V39.45H46.6917V44.97H54.4917V48.72Z" fill="#2F2F2F"/>
<path d="M85.2588 27.3L79.7988 48.72H74.6388L71.7288 37.47C71.6688 37.25 71.5888 36.92 71.4888 36.48C71.4088 36.04 71.3088 35.56 71.1888 35.04C71.0888 34.52 70.9988 34.03 70.9188 33.57C70.8388 33.09 70.7788 32.72 70.7388 32.46C70.7188 32.72 70.6588 33.09 70.5588 33.57C70.4788 34.03 70.3888 34.52 70.2888 35.04C70.1888 35.54 70.0888 36.02 69.9888 36.48C69.8888 36.92 69.8088 37.26 69.7488 37.5L66.8688 48.72H61.7088L56.2488 27.3H60.7188L63.4488 39C63.5288 39.34 63.6188 39.76 63.7188 40.26C63.8188 40.74 63.9188 41.25 64.0188 41.79C64.1188 42.31 64.2088 42.82 64.2888 43.32C64.3888 43.82 64.4588 44.25 64.4988 44.61C64.5388 44.23 64.5988 43.8 64.6788 43.32C64.7588 42.82 64.8488 42.32 64.9488 41.82C65.0488 41.3 65.1388 40.82 65.2188 40.38C65.3188 39.92 65.4088 39.56 65.4888 39.3L68.6088 27.3H72.8988L76.0188 39.3C76.0788 39.56 76.1588 39.92 76.2588 40.38C76.3588 40.82 76.4588 41.3 76.5588 41.82C76.6588 42.34 76.7488 42.85 76.8288 43.35C76.9088 43.83 76.9688 44.25 77.0088 44.61C77.0688 44.11 77.1588 43.52 77.2788 42.84C77.3988 42.14 77.5288 41.44 77.6688 40.74C77.8288 40.04 77.9588 39.46 78.0588 39L80.7888 27.3H85.2588Z" fill="#2F2F2F"/>
</svg>
