<svg width="23" height="22" viewBox="0 0 23 22" fill="none" xmlns="http://www.w3.org/2000/svg">
<path fill-rule="evenodd" clip-rule="evenodd" d="M11.8712 0.120373C14.5266 0.25088 17.001 1.34591 18.8909 3.23707C20.9068 5.25422 22.0164 7.93556 22.0153 10.787C22.0129 16.6713 17.2226 21.459 11.3379 21.459C9.12501 21.459 7.36649 20.7791 6.23102 20.1601L0.57074 21.6441L2.08556 16.1139C1.15117 14.4954 0.659498 12.6596 0.660269 10.7786C0.662632 4.89443 5.45252 0.107178 11.3378 0.107178L11.8712 0.120373ZM6.49324 18.2281L6.81735 18.4203C8.17993 19.2285 9.7418 19.6561 11.3343 19.6567H11.3379C16.2294 19.6567 20.2105 15.6774 20.2125 10.7864C20.2134 8.41631 19.2912 6.18769 17.6156 4.51108C15.94 2.83436 13.7118 1.91045 11.3414 1.90968C6.44619 1.90968 2.465 5.88853 2.46305 10.7792C2.46238 12.4553 2.93155 14.0876 3.81992 15.4998L4.03093 15.8355L3.13439 19.1087L6.49324 18.2281ZM16.7171 13.3248C16.6504 13.2135 16.4726 13.1468 16.2058 13.0133C15.939 12.8799 14.6273 12.2348 14.3828 12.1457C14.1382 12.0568 13.9603 12.0124 13.7825 12.2792C13.6047 12.5462 13.0934 13.1468 12.9377 13.3248C12.7821 13.5028 12.6265 13.5251 12.3597 13.3916C12.093 13.2581 11.2333 12.9765 10.2143 12.068C9.42113 11.3609 8.88569 10.4877 8.73005 10.2208C8.57447 9.95384 8.71346 9.80947 8.84701 9.67655C8.96705 9.55703 9.11386 9.36507 9.24725 9.20936C9.38065 9.0537 9.42508 8.94239 9.51405 8.7645C9.60296 8.5865 9.55848 8.43084 9.49181 8.29735C9.42508 8.16382 8.89155 6.85126 8.66924 6.31732C8.45263 5.7974 8.23268 5.86779 8.06893 5.85957C7.91349 5.85187 7.73546 5.85018 7.55763 5.85018C7.37976 5.85018 7.09072 5.91687 6.84617 6.18389C6.60162 6.45081 5.9124 7.096 5.9124 8.40845C5.9124 9.72107 6.86841 10.989 7.00181 11.167C7.1352 11.345 8.88307 14.0383 11.5594 15.1935C12.1959 15.4682 12.6929 15.6323 13.0803 15.7552C13.7194 15.9581 14.301 15.9295 14.7607 15.8608C15.2733 15.7843 16.3392 15.2157 16.5615 14.5929C16.7838 13.9699 16.7838 13.436 16.7171 13.3248Z" fill="#959595"/>
</svg>
