<svg width="17" height="17" viewBox="0 0 17 17" fill="none" xmlns="http://www.w3.org/2000/svg">
<path fill-rule="evenodd" clip-rule="evenodd" d="M9.15338 0.0904629C11.145 0.188343 13.0008 1.00962 14.4182 2.42799C15.9301 3.94085 16.7623 5.95185 16.7615 8.09046C16.7597 12.5037 13.1669 16.0945 8.75347 16.0945C7.09377 16.0945 5.77488 15.5845 4.92328 15.1202L0.67807 16.2333L1.81419 12.0856C1.11339 10.8718 0.744639 9.49486 0.745217 8.08411C0.746989 3.67101 4.33941 0.0805664 8.75335 0.0805664L9.15338 0.0904629ZM5.11994 13.6712L5.36303 13.8154C6.38496 14.4215 7.55637 14.7422 8.75073 14.7427H8.75343C12.422 14.7427 15.4079 11.7583 15.4094 8.09C15.4101 6.31242 14.7184 4.64095 13.4617 3.38349C12.205 2.12595 10.5339 1.43302 8.75608 1.43244C5.08465 1.43244 2.09876 4.41658 2.0973 8.08457C2.0968 9.34164 2.44868 10.5659 3.11495 11.625L3.27321 11.8768L2.60081 14.3317L5.11994 13.6712ZM12.7878 9.9938C12.7378 9.91033 12.6045 9.86031 12.4044 9.76019C12.2043 9.66008 11.2205 9.17626 11.0371 9.10946C10.8537 9.04281 10.7203 9.00946 10.5869 9.20961C10.4535 9.4098 10.0701 9.86031 9.9533 9.9938C9.83661 10.1273 9.71988 10.144 9.51983 10.0439C9.31973 9.94379 8.67499 9.73255 7.91071 9.0512C7.31586 8.52087 6.91428 7.86598 6.79756 7.66575C6.68087 7.46556 6.78511 7.35729 6.88527 7.2576C6.97531 7.16796 7.08541 7.02399 7.18545 6.9072C7.2855 6.79045 7.31883 6.70698 7.38555 6.57356C7.45224 6.44006 7.41887 6.32331 7.36887 6.2232C7.31883 6.12305 6.91867 5.13863 6.75194 4.73817C6.58949 4.34823 6.42452 4.40102 6.30171 4.39486C6.18514 4.38909 6.05161 4.38782 5.91824 4.38782C5.78483 4.38782 5.56806 4.43783 5.38464 4.6381C5.20123 4.83829 4.68431 5.32218 4.68431 6.30652C4.68431 7.29098 5.40132 8.2419 5.50137 8.3754C5.60142 8.50893 6.91232 10.5289 8.91954 11.3953C9.39693 11.6014 9.76966 11.7244 10.0602 11.8166C10.5396 11.9688 10.9758 11.9473 11.3206 11.8958C11.705 11.8384 12.5044 11.412 12.6711 10.9449C12.8379 10.4776 12.8379 10.0772 12.7878 9.9938Z" fill="#959595"/>
</svg>
