<svg width="21" height="12" viewBox="0 0 21 12" fill="none" xmlns="http://www.w3.org/2000/svg">
<path d="M19.9886 10.0902C19.9651 10.0398 19.9434 9.99798 19.923 9.96443C19.5879 9.36082 18.9474 8.61985 18.0019 7.74143L17.982 7.72129L17.9721 7.71147L17.9618 7.70134H17.9517C17.5226 7.29236 17.2508 7.01724 17.1371 6.87651C16.929 6.60825 16.8822 6.33672 16.9961 6.0616C17.0765 5.85379 17.3785 5.41483 17.9013 4.74413C18.1763 4.38873 18.3941 4.10387 18.555 3.88925C19.7152 2.34692 20.2182 1.36134 20.0638 0.932147L20.0039 0.831848C19.9636 0.771466 19.8597 0.716229 19.6922 0.665849C19.5245 0.615582 19.3099 0.607267 19.0484 0.640772L16.1517 0.660776C16.1048 0.644147 16.0377 0.645701 15.9504 0.665849C15.8633 0.686007 15.8196 0.696112 15.8196 0.696112L15.7692 0.721302L15.7292 0.751564C15.6957 0.771579 15.6588 0.806771 15.6185 0.857079C15.5784 0.907203 15.545 0.96604 15.5181 1.03308C15.2027 1.84444 14.8443 2.5988 14.4418 3.29613C14.1937 3.71194 13.9658 4.0723 13.7578 4.37738C13.5499 4.68246 13.3755 4.90715 13.2348 5.05125C13.0939 5.19536 12.9667 5.31092 12.8525 5.39816C12.7386 5.4855 12.6515 5.52232 12.5912 5.50882C12.5307 5.49542 12.4739 5.48203 12.42 5.46863C12.3262 5.40818 12.2507 5.32606 12.1939 5.22215C12.1367 5.11824 12.0982 4.98743 12.0782 4.82983C12.058 4.67213 12.0463 4.53651 12.0429 4.42248C12.0397 4.30865 12.0412 4.14752 12.048 3.93966C12.055 3.7317 12.058 3.59099 12.058 3.51723C12.058 3.26238 12.063 2.98579 12.073 2.68741C12.0832 2.38901 12.0914 2.1526 12.0982 1.97842C12.1051 1.80406 12.1083 1.61961 12.1083 1.42515C12.1083 1.23068 12.0964 1.07817 12.073 0.967482C12.05 0.856936 12.0145 0.749631 11.9677 0.645599C11.9207 0.54167 11.8519 0.461273 11.7615 0.404205C11.671 0.347208 11.5584 0.301973 11.4246 0.268366C11.0692 0.187929 10.6165 0.144422 10.0666 0.137662C8.81944 0.124274 8.01809 0.204804 7.66269 0.379159C7.52188 0.452826 7.39445 0.553472 7.28053 0.680791C7.1598 0.828361 7.14296 0.9089 7.23012 0.922144C7.6325 0.982424 7.91736 1.12662 8.08503 1.35458L8.14544 1.47539C8.19243 1.56254 8.23935 1.71684 8.28632 1.93808C8.33321 2.15932 8.36347 2.40406 8.37678 2.67214C8.41025 3.16172 8.41025 3.58082 8.37678 3.92944C8.34321 4.27817 8.31151 4.54971 8.28125 4.74423C8.25098 4.93865 8.20575 5.09625 8.14544 5.21693C8.08503 5.33762 8.04482 5.41136 8.02467 5.43815C8.00455 5.46495 7.98779 5.48182 7.97447 5.48837C7.88731 5.52181 7.79667 5.53879 7.70285 5.53879C7.6089 5.53879 7.49496 5.49184 7.36088 5.39785C7.22683 5.30397 7.08772 5.175 6.94352 5.01065C6.79932 4.8463 6.63672 4.6167 6.4556 4.32164C6.27462 4.02664 6.08685 3.67798 5.89239 3.27566L5.73149 2.98389C5.63092 2.79619 5.49353 2.52289 5.31918 2.16422C5.14473 1.80541 4.99053 1.45833 4.85648 1.12305C4.80289 0.98224 4.72239 0.875038 4.61513 0.801269L4.56479 0.771006C4.53131 0.744241 4.47759 0.715809 4.40389 0.685506C4.33009 0.655243 4.25307 0.633551 4.17254 0.620195L1.4166 0.64021C1.13498 0.64021 0.943894 0.704007 0.843278 0.831429L0.803013 0.891708C0.782896 0.925274 0.772751 0.978896 0.772751 1.05271C0.772751 1.12648 0.792868 1.21702 0.833133 1.32421C1.23545 2.26977 1.67297 3.18168 2.14567 4.06007C2.61837 4.93845 3.02914 5.64607 3.37773 6.18218C3.7264 6.71871 4.0818 7.22506 4.44391 7.70093C4.80603 8.17712 5.04573 8.4822 5.16301 8.61627C5.28043 8.75056 5.37265 8.85099 5.43969 8.91798L5.6912 9.15934C5.85213 9.32032 6.08844 9.5131 6.40026 9.73769C6.71214 9.96239 7.05742 10.1836 7.43628 10.4018C7.81519 10.6195 8.25603 10.7971 8.75898 10.9346C9.26189 11.0721 9.75136 11.1274 10.2275 11.1008H11.3843C11.6188 11.0804 11.7965 11.0068 11.9173 10.8795L11.9573 10.829C11.9843 10.789 12.0095 10.7269 12.0327 10.6431C12.0562 10.5594 12.0679 10.467 12.0679 10.3666C12.061 10.0783 12.083 9.81839 12.1332 9.58715C12.1833 9.35591 12.2404 9.18154 12.3043 9.06413C12.3682 8.94682 12.4402 8.84782 12.5205 8.76754C12.6009 8.68715 12.6582 8.63847 12.6918 8.62169C12.7252 8.60482 12.7519 8.59337 12.772 8.58641C12.9329 8.53282 13.1223 8.58477 13.3404 8.74248C13.5584 8.90008 13.7629 9.0946 13.9541 9.32584C14.1452 9.55729 14.3748 9.81706 14.6429 10.1053C14.9113 10.3937 15.146 10.608 15.3469 10.7491L15.5481 10.8698C15.6825 10.9502 15.8568 11.0241 16.0714 11.0911C16.2857 11.1582 16.4734 11.1749 16.6344 11.1414L19.2093 11.1012C19.464 11.1012 19.6621 11.0591 19.8026 10.9754C19.9436 10.8915 20.0272 10.7992 20.0541 10.6989C20.0811 10.5983 20.0826 10.4842 20.0592 10.3567C20.0354 10.2294 20.0119 10.1404 19.9886 10.0902Z" fill="#959595"/>
</svg>
